<svg width="24" height="25" viewBox="0 0 24 25" fill="none" xmlns="http://www.w3.org/2000/svg">
<path opacity="0.4" d="M16.19 2.5H7.81C4.17 2.5 2 4.67 2 8.31V16.68C2 20.33 4.17 22.5 7.81 22.5H16.18C19.82 22.5 21.99 20.33 21.99 16.69V8.31C22 4.67 19.83 2.5 16.19 2.5Z" fill="#8D96AC"/>
<path d="M18 11.75H12.75V6.5C12.75 6.09 12.41 5.75 12 5.75C11.59 5.75 11.25 6.09 11.25 6.5V11.75H6C5.59 11.75 5.25 12.09 5.25 12.5C5.25 12.91 5.59 13.25 6 13.25H11.25V18.5C11.25 18.91 11.59 19.25 12 19.25C12.41 19.25 12.75 18.91 12.75 18.5V13.25H18C18.41 13.25 18.75 12.91 18.75 12.5C18.75 12.09 18.41 11.75 18 11.75Z" fill="#8D96AC"/>
</svg>
