<svg width="22" height="23" viewBox="0 0 22 23" fill="none" xmlns="http://www.w3.org/2000/svg">
<path opacity="0.4" d="M17.1142 2.33337H15.3725C13.3742 2.33337 12.32 3.38754 12.32 5.38587V7.12754C12.32 9.12587 13.3742 10.18 15.3725 10.18H17.1142C19.1125 10.18 20.1667 9.12587 20.1667 7.12754V5.38587C20.1667 3.38754 19.1125 2.33337 17.1142 2.33337Z" fill="#141A14"/>
<path opacity="0.4" d="M6.63666 12.8108H4.895C2.8875 12.8108 1.83333 13.865 1.83333 15.8633V17.605C1.83333 19.6125 2.8875 20.6666 4.88583 20.6666H6.6275C8.62583 20.6666 9.68 19.6125 9.68 17.6141V15.8725C9.68917 13.865 8.635 12.8108 6.63666 12.8108Z" fill="#141A14"/>
<path d="M5.76583 10.1984C7.93769 10.1984 9.69833 8.43773 9.69833 6.26587C9.69833 4.09401 7.93769 2.33337 5.76583 2.33337C3.59397 2.33337 1.83333 4.09401 1.83333 6.26587C1.83333 8.43773 3.59397 10.1984 5.76583 10.1984Z" fill="#141A14"/>
<path d="M16.2342 20.6666C18.406 20.6666 20.1667 18.906 20.1667 16.7341C20.1667 14.5623 18.406 12.8016 16.2342 12.8016C14.0623 12.8016 12.3017 14.5623 12.3017 16.7341C12.3017 18.906 14.0623 20.6666 16.2342 20.6666Z" fill="#141A14"/>
</svg>
