<svg width="24" height="25" viewBox="0 0 24 25" fill="none" xmlns="http://www.w3.org/2000/svg">
<path opacity="0.4" d="M15.48 3.5H7.52C4.07 3.5 2 5.56 2 9.02V16.97C2 20.44 4.07 22.5 7.52 22.5H15.47C18.93 22.5 20.99 20.44 20.99 16.98V9.02C21 5.56 18.93 3.5 15.48 3.5Z" fill="#07DF74"/>
<path d="M21.02 3.48003C19.23 1.68003 17.48 1.64003 15.64 3.48003L14.51 4.60003C14.41 4.70003 14.38 4.84003 14.42 4.97003C15.12 7.42003 17.08 9.38003 19.53 10.08C19.56 10.09 19.61 10.09 19.64 10.09C19.74 10.09 19.84 10.05 19.91 9.98003L21.02 8.86003C21.93 7.95003 22.38 7.08003 22.38 6.19003C22.38 5.29003 21.93 4.40003 21.02 3.48003Z" fill="#07DF74"/>
<path d="M17.86 10.92C17.59 10.79 17.33 10.66 17.09 10.51C16.89 10.39 16.69 10.26 16.5 10.12C16.34 10.02 16.16 9.86997 15.98 9.71997C15.96 9.70997 15.9 9.65997 15.82 9.57997C15.51 9.32997 15.18 8.98997 14.87 8.61997C14.85 8.59997 14.79 8.53997 14.74 8.44997C14.64 8.33997 14.49 8.14997 14.36 7.93997C14.25 7.79997 14.12 7.59997 14 7.38997C13.85 7.13997 13.72 6.88997 13.6 6.62997C13.47 6.34997 13.37 6.08997 13.28 5.83997L7.9 11.22C7.55 11.57 7.21 12.23 7.14 12.72L6.71 15.7C6.62 16.33 6.79 16.92 7.18 17.31C7.51 17.64 7.96 17.81 8.46 17.81C8.57 17.81 8.68 17.8 8.79 17.79L11.76 17.37C12.25 17.3 12.91 16.97 13.26 16.61L18.64 11.23C18.39 11.15 18.14 11.04 17.86 10.92Z" fill="#07DF74"/>
</svg>
