<svg width="40" height="40" viewBox="0 0 40 40" fill="none" xmlns="http://www.w3.org/2000/svg">
<path d="M32.6571 16.5412L22.7523 19.3715C22.503 19.4428 22.2768 19.5784 22.0965 19.7648C21.9162 19.9511 21.7881 20.1816 21.7251 20.4331L20.9615 23.4925C20.8984 23.744 20.7703 23.9745 20.59 24.1609C20.4097 24.3472 20.1836 24.4829 19.9343 24.5542L10.4408 27.2589C10.1912 27.3304 9.96487 27.4664 9.78455 27.6532C9.60423 27.84 9.4763 28.071 9.41364 28.323L8.12535 33.4442C8.11497 33.4862 8.11585 33.5302 8.12788 33.5717C8.13992 33.6133 8.16269 33.6509 8.1939 33.6809C8.22512 33.7109 8.26367 33.7321 8.30569 33.7424C8.34771 33.7527 8.39171 33.7518 8.43326 33.7397L18.3356 30.9094C18.5849 30.8381 18.8111 30.7025 18.9914 30.5161C19.1717 30.3298 19.2998 30.0993 19.3628 29.8478L20.1264 26.7958C20.1895 26.5443 20.3176 26.3137 20.4979 26.1274C20.6782 25.941 20.9043 25.8054 21.1536 25.7341L30.6471 23.0245C30.8967 22.953 31.123 22.817 31.3033 22.6302C31.4837 22.4434 31.6116 22.2123 31.6743 21.9604L32.9625 16.8417C32.9738 16.7996 32.9737 16.7553 32.9622 16.7133C32.9508 16.6713 32.9284 16.633 32.8973 16.6025C32.8663 16.5719 32.8277 16.5502 32.7855 16.5394C32.7433 16.5286 32.699 16.5292 32.6571 16.5412Z" fill="url(#paint0_linear_216_6)"/>
<path d="M32.6571 6.24995L22.7523 9.0901C22.503 9.16141 22.2768 9.29705 22.0965 9.4834C21.9162 9.66975 21.7881 9.90026 21.7251 10.1518L20.9615 13.2038C20.8984 13.4553 20.7703 13.6858 20.59 13.8721C20.4097 14.0585 20.1836 14.1941 19.9343 14.2654L10.4408 16.9775C10.1912 17.049 9.96487 17.185 9.78455 17.3718C9.60423 17.5587 9.4763 17.7897 9.41364 18.0416L8.12535 23.1628C8.11497 23.2048 8.11585 23.2488 8.12788 23.2904C8.13992 23.3319 8.16269 23.3696 8.1939 23.3995C8.22512 23.4295 8.26367 23.4507 8.30569 23.4611C8.34771 23.4714 8.39171 23.4705 8.43326 23.4584L18.3356 20.6281C18.5849 20.5568 18.8111 20.4211 18.9914 20.2348C19.1717 20.0484 19.2998 19.8179 19.3628 19.5664L20.1264 16.5144C20.1895 16.2629 20.3176 16.0324 20.4979 15.846C20.6782 15.6597 20.9043 15.524 21.1536 15.4527L30.6471 12.7431C30.8992 12.6719 31.1279 12.5349 31.3097 12.3462C31.4915 12.1575 31.6199 11.9238 31.6816 11.6692L32.9625 6.548C32.9733 6.50609 32.9727 6.46209 32.961 6.42045C32.9493 6.3788 32.9269 6.34096 32.8959 6.31075C32.865 6.28054 32.8266 6.25901 32.7847 6.24834C32.7427 6.23766 32.6987 6.23822 32.6571 6.24995Z" fill="url(#paint1_linear_216_6)"/>
<defs>
<linearGradient id="paint0_linear_216_6" x1="20.5445" y1="16.5317" x2="20.5445" y2="33.7495" gradientUnits="userSpaceOnUse">
<stop stop-color="#6936F5"/>
<stop offset="1" stop-color="#3D208F"/>
</linearGradient>
<linearGradient id="paint1_linear_216_6" x1="20.5442" y1="6.24072" x2="20.5442" y2="23.4682" gradientUnits="userSpaceOnUse">
<stop stop-color="#6936F5"/>
<stop offset="1" stop-color="#3D208F"/>
</linearGradient>
</defs>
</svg>
