<svg width="196" height="42" viewBox="0 0 196 42" fill="none" xmlns="http://www.w3.org/2000/svg">
<g clip-path="url(#clip0_183_208)">
<path d="M29.2917 15.8333L36.2584 33.25H32.8463L30.9447 28.5H24.4689L22.5704 33.25H19.1599L26.125 15.8333H29.2917ZM15.8334 3.16666V6.33332H25.3334V9.49999H22.2174C20.996 13.1766 19.0467 16.5696 16.4857 19.4766C17.6278 20.4956 18.8665 21.4008 20.1844 22.1793L18.9953 25.1528C17.294 24.1879 15.7029 23.0406 14.25 21.7312C11.4215 24.2911 8.07192 26.2076 4.43177 27.3489L3.5831 24.2947C6.70201 23.3002 9.57605 21.6589 12.0175 19.4782C10.2104 17.4324 8.70529 15.1387 7.54777 12.6667H11.0944C11.9769 14.2957 13.0351 15.8232 14.25 17.2219C16.2294 14.9405 17.7892 12.3267 18.8575 9.50157L3.16669 9.49999V6.33332H12.6667V3.16666H15.8334ZM27.7084 20.4012L25.7339 25.3333H29.6796L27.7084 20.4012Z" fill="#0D0D0D"/>
</g>
<path d="M54.8 15V3.544H60.208L64.176 11.32H64.208L68.128 3.544H73.6V15H69.664V7.816H69.632L66.048 15H62.48L58.768 7.816H58.736V15H54.8ZM74.7422 15L80.4542 3.544H85.3022L90.8862 15H86.5503L85.6543 13H79.9422L79.0623 15H74.7422ZM80.7582 10.648H84.8542L82.8383 6.12H82.8062L80.7582 10.648ZM94.3105 15V6.488H89.8465V3.544H102.951V6.488H98.4865V15H94.3105ZM116.741 15.32C115.013 15.32 114.149 14.328 113.493 13.384L112.773 12.184C112.293 11.512 111.589 11.192 110.837 11.192H108.389V15H104.213V3.544H113.845C116.917 3.544 118.677 4.872 118.677 7.176C118.677 8.888 117.461 10.088 115.365 10.488V10.504C115.749 10.648 116.101 10.952 116.373 11.368L117.189 12.6C117.397 12.888 117.669 13.08 118.117 13.08C118.389 13.08 118.773 12.936 118.965 12.712L119.669 14.392C119.045 14.936 117.797 15.32 116.741 15.32ZM108.389 8.84H112.597C113.797 8.84 114.501 8.312 114.501 7.432C114.501 6.536 113.797 6.008 112.597 6.008H108.389V8.84ZM120.783 15V3.544H124.927V15H120.783ZM134.933 15.288C129.829 15.288 126.581 13.064 126.581 9.272C126.581 5.592 129.637 3.256 134.453 3.256C138.117 3.256 140.933 4.84 141.701 7.352L137.909 8.152C137.525 6.952 136.213 6.2 134.565 6.2C132.245 6.2 130.757 7.4 130.757 9.272C130.757 11.144 132.421 12.344 135.045 12.344C137.109 12.344 138.613 11.464 138.949 10.072L142.789 10.76C142.181 13.528 139.141 15.288 134.933 15.288ZM148.181 15V3.544H153.205L159.365 11.016H159.381V3.544H163.317V15H158.309L152.133 7.432H152.117V15H148.181ZM173.347 15.4C168.323 15.4 164.963 12.952 164.963 9.272C164.963 5.592 168.323 3.144 173.347 3.144C178.387 3.144 181.747 5.592 181.747 9.272C181.747 12.952 178.387 15.4 173.347 15.4ZM173.347 12.456C175.859 12.456 177.571 11.176 177.571 9.272C177.571 7.368 175.859 6.088 173.347 6.088C170.835 6.088 169.139 7.368 169.139 9.272C169.139 11.176 170.835 12.456 173.347 12.456ZM61.936 36.288C57.504 36.288 54.528 33.952 54.528 30.512C54.528 26.768 57.792 24.256 62.656 24.256C66.32 24.256 69.184 25.76 69.664 27.984L65.776 28.656C65.456 27.728 64.16 27.088 62.64 27.088C60.304 27.088 58.704 28.416 58.704 30.384C58.704 32.288 60.496 33.568 63.168 33.568C65.248 33.568 66.848 32.704 66.992 31.504H60.848V29.392H71.024V36H67.728L67.568 34.128H67.552C66.448 35.44 64.304 36.288 61.936 36.288ZM72.6981 36V24.544H84.7781V27.136H76.7461V29.056H84.1381V31.28H76.7461V33.408H84.9381V36H72.6981ZM86.3775 36V24.544H91.4015L97.5615 32.016H97.5775V24.544H101.514V36H96.5055L90.3295 28.432H90.3135V36H86.3775ZM103.432 36V24.544H115.512V27.136H107.48V29.056H114.872V31.28H107.48V33.408H115.672V36H103.432ZM129.639 36.32C127.911 36.32 127.047 35.328 126.391 34.384L125.671 33.184C125.191 32.512 124.487 32.192 123.735 32.192H121.287V36H117.111V24.544H126.743C129.815 24.544 131.575 25.872 131.575 28.176C131.575 29.888 130.359 31.088 128.263 31.488V31.504C128.647 31.648 128.999 31.952 129.271 32.368L130.087 33.6C130.295 33.888 130.567 34.08 131.015 34.08C131.287 34.08 131.671 33.936 131.863 33.712L132.567 35.392C131.943 35.936 130.695 36.32 129.639 36.32ZM121.287 29.84H125.495C126.695 29.84 127.399 29.312 127.399 28.432C127.399 27.536 126.695 27.008 125.495 27.008H121.287V29.84ZM132.975 36L138.687 24.544H143.535L149.119 36H144.783L143.887 34H138.175L137.295 36H132.975ZM138.991 31.648H143.087L141.071 27.12H141.039L138.991 31.648ZM152.544 36V27.488H148.08V24.544H161.184V27.488H156.72V36H152.544ZM170.183 36.4C165.159 36.4 161.799 33.952 161.799 30.272C161.799 26.592 165.159 24.144 170.183 24.144C175.223 24.144 178.583 26.592 178.583 30.272C178.583 33.952 175.223 36.4 170.183 36.4ZM170.183 33.456C172.695 33.456 174.407 32.176 174.407 30.272C174.407 28.368 172.695 27.088 170.183 27.088C167.671 27.088 165.975 28.368 165.975 30.272C165.975 32.176 167.671 33.456 170.183 33.456ZM192.747 36.32C191.019 36.32 190.155 35.328 189.499 34.384L188.779 33.184C188.299 32.512 187.595 32.192 186.843 32.192H184.395V36H180.219V24.544H189.851C192.923 24.544 194.683 25.872 194.683 28.176C194.683 29.888 193.467 31.088 191.371 31.488V31.504C191.755 31.648 192.107 31.952 192.379 32.368L193.195 33.6C193.403 33.888 193.675 34.08 194.123 34.08C194.395 34.08 194.779 33.936 194.971 33.712L195.675 35.392C195.051 35.936 193.803 36.32 192.747 36.32ZM184.395 29.84H188.603C189.803 29.84 190.507 29.312 190.507 28.432C190.507 27.536 189.803 27.008 188.603 27.008H184.395V29.84Z" fill="#0D0D0D"/>
<defs>
<clipPath id="clip0_183_208">
<rect width="38" height="38" fill="white"/>
</clipPath>
</defs>
</svg>
