<svg width="176" height="40" viewBox="0 0 176 40" fill="none" xmlns="http://www.w3.org/2000/svg">
<path d="M32.6571 16.5412L22.7523 19.3715C22.503 19.4428 22.2768 19.5784 22.0965 19.7648C21.9162 19.9511 21.7881 20.1816 21.7251 20.4331L20.9615 23.4925C20.8984 23.744 20.7703 23.9745 20.59 24.1609C20.4097 24.3472 20.1836 24.4829 19.9343 24.5542L10.4408 27.2589C10.1912 27.3304 9.96487 27.4664 9.78455 27.6532C9.60423 27.84 9.4763 28.071 9.41364 28.323L8.12535 33.4442C8.11497 33.4862 8.11585 33.5302 8.12788 33.5717C8.13992 33.6133 8.16269 33.6509 8.1939 33.6809C8.22512 33.7109 8.26367 33.7321 8.30569 33.7424C8.34771 33.7527 8.39171 33.7518 8.43326 33.7397L18.3356 30.9094C18.5849 30.8381 18.8111 30.7025 18.9914 30.5161C19.1717 30.3298 19.2998 30.0993 19.3628 29.8478L20.1264 26.7958C20.1895 26.5443 20.3176 26.3137 20.4979 26.1274C20.6782 25.941 20.9043 25.8054 21.1536 25.7341L30.6471 23.0245C30.8967 22.953 31.123 22.817 31.3033 22.6302C31.4837 22.4434 31.6116 22.2123 31.6743 21.9604L32.9625 16.8417C32.9738 16.7996 32.9737 16.7553 32.9622 16.7133C32.9508 16.6713 32.9284 16.633 32.8973 16.6025C32.8663 16.5719 32.8277 16.5502 32.7855 16.5394C32.7433 16.5286 32.699 16.5292 32.6571 16.5412Z" fill="url(#paint0_linear_216_5)"/>
<path d="M32.6571 6.24995L22.7523 9.0901C22.503 9.16141 22.2768 9.29705 22.0965 9.4834C21.9162 9.66975 21.7881 9.90026 21.7251 10.1518L20.9615 13.2038C20.8984 13.4553 20.7703 13.6858 20.59 13.8721C20.4097 14.0585 20.1836 14.1941 19.9343 14.2654L10.4408 16.9775C10.1912 17.049 9.96487 17.185 9.78455 17.3718C9.60423 17.5587 9.4763 17.7897 9.41364 18.0416L8.12535 23.1628C8.11497 23.2048 8.11585 23.2488 8.12788 23.2904C8.13992 23.3319 8.16269 23.3696 8.1939 23.3995C8.22512 23.4295 8.26367 23.4507 8.30569 23.4611C8.34771 23.4714 8.39171 23.4705 8.43326 23.4584L18.3356 20.6281C18.5849 20.5568 18.8111 20.4211 18.9914 20.2348C19.1717 20.0484 19.2998 19.8179 19.3628 19.5664L20.1264 16.5144C20.1895 16.2629 20.3176 16.0324 20.4979 15.846C20.6782 15.6597 20.9043 15.524 21.1536 15.4527L30.6471 12.7431C30.8992 12.6719 31.1279 12.5349 31.3097 12.3462C31.4915 12.1575 31.6199 11.9238 31.6816 11.6692L32.9625 6.548C32.9733 6.50609 32.9727 6.46209 32.961 6.42045C32.9493 6.3788 32.9269 6.34096 32.8959 6.31075C32.865 6.28054 32.8266 6.25901 32.7847 6.24834C32.7427 6.23766 32.6987 6.23822 32.6571 6.24995Z" fill="url(#paint1_linear_216_5)"/>
<path d="M51.904 29V9.12H57.448L62.768 24.352H62.796L68.088 9.12H73.632V29H69.796V14.412H69.74L64.56 29H60.976L55.796 14.412H55.74V29H51.904ZM80.1871 29.336C77.4711 29.336 75.5671 27.768 75.5671 25.248C75.5671 22.7 77.5551 20.936 81.2791 20.544L83.5471 20.292C84.2191 20.236 84.7231 19.788 84.7231 19.004C84.7231 17.8 83.6591 17.044 82.2311 17.044C80.4951 17.044 79.3751 18.36 79.3191 19.872L75.9591 19.088C76.0711 16.372 78.5631 14.244 82.2591 14.244C85.9551 14.244 88.2791 16.372 88.2791 19.564V29H85.0311L84.6391 27.012H84.6111C83.7151 28.496 82.1471 29.336 80.1871 29.336ZM81.5311 26.564C83.3231 26.564 84.6391 25.22 84.6391 23.232V22.504L82.1191 22.784C80.1311 23.008 79.2351 23.82 79.2351 24.884C79.2351 25.948 80.1871 26.564 81.5311 26.564ZM96.3507 29.448C93.3827 29.448 91.6467 27.684 91.6467 24.884V17.52H89.1827V14.72H91.6467V10.856L95.2867 10.044V14.72H100.131V17.52H95.2867V24.24C95.2867 25.612 95.9307 26.424 97.0227 26.424C98.0587 26.424 98.8427 25.808 99.1787 24.296L100.943 26.228C100.383 28.272 98.6467 29.448 96.3507 29.448ZM109.261 14.3C111.613 14.3 113.069 16.064 113.181 19.116L110.101 19.984C110.017 18.164 109.317 17.156 108.197 17.156C106.741 17.156 105.873 18.696 105.873 21.328V29H102.205V14.72H105.173L105.621 17.1H105.649C106.293 15.336 107.637 14.3 109.261 14.3ZM116.833 12.508C115.489 12.508 114.565 11.612 114.565 10.268C114.565 8.952 115.489 8.056 116.833 8.056C118.205 8.056 119.129 8.952 119.129 10.268C119.129 11.612 118.205 12.508 116.833 12.508ZM114.985 29V14.72H118.653V29H114.985ZM127.637 29.476C123.409 29.476 120.693 26.508 120.721 21.86C120.721 17.212 123.325 14.244 127.273 14.244C130.465 14.244 132.789 16.204 133.405 19.34L130.017 20.152C129.653 18.304 128.589 17.268 127.301 17.268C125.537 17.268 124.361 19.004 124.361 21.86C124.361 24.716 125.705 26.452 127.665 26.452C129.345 26.452 130.577 25.164 130.885 23.008L134.273 23.624C133.769 27.18 131.193 29.476 127.637 29.476ZM141.7 29V9.12H146.852L153.964 24.016H154.02V9.12H157.884V29H152.76L145.62 14.132H145.564V29H141.7ZM167.147 29.476C162.863 29.476 160.091 26.48 160.091 21.832C160.091 17.212 162.863 14.244 167.147 14.244C171.431 14.244 174.203 17.212 174.203 21.832C174.203 26.48 171.431 29.476 167.147 29.476ZM167.147 26.34C169.219 26.34 170.563 24.604 170.563 21.832C170.563 19.088 169.219 17.38 167.147 17.38C165.047 17.38 163.731 19.088 163.731 21.832C163.731 24.604 165.047 26.34 167.147 26.34Z" fill="#6936F5"/>
<defs>
<linearGradient id="paint0_linear_216_5" x1="20.5445" y1="16.5317" x2="20.5445" y2="33.7495" gradientUnits="userSpaceOnUse">
<stop stop-color="#6936F5"/>
<stop offset="1" stop-color="#3D208F"/>
</linearGradient>
<linearGradient id="paint1_linear_216_5" x1="20.5442" y1="6.24072" x2="20.5442" y2="23.4682" gradientUnits="userSpaceOnUse">
<stop stop-color="#6936F5"/>
<stop offset="1" stop-color="#3D208F"/>
</linearGradient>
</defs>
</svg>
