<svg width="22" height="23" viewBox="0 0 22 23" fill="none" xmlns="http://www.w3.org/2000/svg">
<path opacity="0.4" d="M11 20.6667C16.0626 20.6667 20.1667 16.5627 20.1667 11.5C20.1667 6.43743 16.0626 2.33337 11 2.33337C5.93739 2.33337 1.83333 6.43743 1.83333 11.5C1.83333 16.5627 5.93739 20.6667 11 20.6667Z" fill="#8D96AC"/>
<path d="M11 18.6042C7.08583 18.6042 3.89583 15.4142 3.89583 11.5C3.89583 11.1242 4.2075 10.8125 4.58333 10.8125C4.95917 10.8125 5.27083 11.1242 5.27083 11.5C5.27083 14.6625 7.8375 17.2292 11 17.2292C14.1625 17.2292 16.7292 14.6625 16.7292 11.5C16.7292 8.33754 14.1625 5.77087 11 5.77087C10.6242 5.77087 10.3125 5.45921 10.3125 5.08337C10.3125 4.70754 10.6242 4.39587 11 4.39587C14.9142 4.39587 18.1042 7.58587 18.1042 11.5C18.1042 15.4142 14.9142 18.6042 11 18.6042Z" fill="#8D96AC"/>
<path d="M11 15.8542C10.6242 15.8542 10.3125 15.5425 10.3125 15.1667C10.3125 14.7909 10.6242 14.4792 11 14.4792C12.6408 14.4792 13.9792 13.1409 13.9792 11.5C13.9792 9.85921 12.6408 8.52087 11 8.52087C10.6242 8.52087 10.3125 8.20921 10.3125 7.83337C10.3125 7.45754 10.6242 7.14587 11 7.14587C13.4017 7.14587 15.3542 9.09837 15.3542 11.5C15.3542 13.9017 13.4017 15.8542 11 15.8542Z" fill="#8D96AC"/>
</svg>
