<svg width="24" height="25" viewBox="0 0 24 25" fill="none" xmlns="http://www.w3.org/2000/svg">
<path d="M18 13.5C17.06 13.5 16.19 13.83 15.5 14.38C14.58 15.11 14 16.24 14 17.5C14 18.25 14.21 18.96 14.58 19.56C15.27 20.72 16.54 21.5 18 21.5C19.01 21.5 19.93 21.13 20.63 20.5C20.94 20.24 21.21 19.92 21.42 19.56C21.79 18.96 22 18.25 22 17.5C22 15.29 20.21 13.5 18 13.5ZM20.07 17.07L17.94 19.04C17.8 19.17 17.61 19.24 17.43 19.24C17.24 19.24 17.05 19.17 16.9 19.02L15.91 18.03C15.62 17.74 15.62 17.26 15.91 16.97C16.2 16.68 16.68 16.68 16.97 16.97L17.45 17.45L19.05 15.97C19.35 15.69 19.83 15.71 20.11 16.01C20.39 16.31 20.37 16.78 20.07 17.07Z" fill="#8D96AC"/>
<path opacity="0.4" d="M21.09 22C21.09 22.28 20.87 22.5 20.59 22.5H3.41C3.13 22.5 2.91 22.28 2.91 22C2.91 17.86 6.99 14.5 12 14.5C13.03 14.5 14.03 14.64 14.95 14.91C14.36 15.61 14 16.52 14 17.5C14 18.25 14.21 18.96 14.58 19.56C14.78 19.9 15.04 20.21 15.34 20.47C16.04 21.11 16.97 21.5 18 21.5C19.12 21.5 20.13 21.04 20.85 20.3C21.01 20.84 21.09 21.41 21.09 22Z" fill="#8D96AC"/>
<path d="M12 12.5C14.7614 12.5 17 10.2614 17 7.5C17 4.73858 14.7614 2.5 12 2.5C9.23858 2.5 7 4.73858 7 7.5C7 10.2614 9.23858 12.5 12 12.5Z" fill="#8D96AC"/>
</svg>
