<svg width="24" height="25" viewBox="0 0 24 25" fill="none" xmlns="http://www.w3.org/2000/svg">
<path d="M21.07 5.73C19.46 5.57 17.85 5.45 16.23 5.36V5.35L16.01 4.05C15.86 3.13 15.64 1.75 13.3 1.75H10.68C8.35 1.75 8.13 3.07 7.97 4.04L7.76 5.32C6.83 5.38 5.9 5.44 4.97 5.53L2.93 5.73C2.51 5.77 2.21 6.14 2.25 6.55C2.29 6.96 2.65 7.26 3.07 7.22L5.11 7.02C10.35 6.5 15.63 6.7 20.93 7.23C20.96 7.23 20.98 7.23 21.01 7.23C21.39 7.23 21.72 6.94 21.76 6.55C21.79 6.14 21.49 5.77 21.07 5.73Z" fill="#E5301B"/>
<path opacity="0.3991" d="M19.23 8.64C18.99 8.39 18.66 8.25 18.32 8.25H5.68C5.34 8.25 5 8.39 4.77 8.64C4.54 8.89 4.41 9.23 4.43 9.58L5.05 19.84C5.16 21.36 5.3 23.26 8.79 23.26H15.21C18.7 23.26 18.84 21.37 18.95 19.84L19.57 9.59C19.59 9.23 19.46 8.89 19.23 8.64Z" fill="#E5301B"/>
<path fill-rule="evenodd" clip-rule="evenodd" d="M9.58 17.5C9.58 17.0858 9.91579 16.75 10.33 16.75H13.66C14.0742 16.75 14.41 17.0858 14.41 17.5C14.41 17.9142 14.0742 18.25 13.66 18.25H10.33C9.91579 18.25 9.58 17.9142 9.58 17.5Z" fill="#E5301B"/>
<path fill-rule="evenodd" clip-rule="evenodd" d="M8.75 13.5C8.75 13.0858 9.08579 12.75 9.5 12.75H14.5C14.9142 12.75 15.25 13.0858 15.25 13.5C15.25 13.9142 14.9142 14.25 14.5 14.25H9.5C9.08579 14.25 8.75 13.9142 8.75 13.5Z" fill="#E5301B"/>
</svg>
