<svg width="24" height="25" viewBox="0 0 24 25" fill="none" xmlns="http://www.w3.org/2000/svg">
<path d="M12 12.5C14.7614 12.5 17 10.2614 17 7.5C17 4.73858 14.7614 2.5 12 2.5C9.23858 2.5 7 4.73858 7 7.5C7 10.2614 9.23858 12.5 12 12.5Z" fill="#8D96AC"/>
<path opacity="0.4" d="M12 15C6.99 15 2.90997 18.36 2.90997 22.5C2.90997 22.78 3.12997 23 3.40997 23H20.59C20.87 23 21.09 22.78 21.09 22.5C21.09 18.36 17.01 15 12 15Z" fill="#8D96AC"/>
<path d="M21.43 15.2401C20.53 14.3401 19.82 14.6301 19.21 15.2401L15.67 18.7801C15.53 18.9201 15.4 19.1801 15.37 19.3701L15.18 20.7201C15.11 21.2101 15.45 21.5501 15.94 21.4801L17.29 21.2901C17.48 21.2601 17.75 21.1301 17.88 20.9901L21.42 17.4501C22.04 16.8501 22.33 16.1401 21.43 15.2401Z" fill="#8D96AC"/>
</svg>
